<svg width="89" height="17" viewBox="0 0 89 17" fill="none" xmlns="http://www.w3.org/2000/svg">
<path d="M8 1.5L1 8.5L8 15.5" stroke="#e74c3c" stroke-width="2" stroke-linecap="round" stroke-linejoin="round"/>
<path d="M20.2222 1.5L14 15.5" stroke="#e74c3c" stroke-width="2" stroke-linecap="round" stroke-linejoin="round"/>
<path d="M28.485 13H26.5077L29.5205 4.27273H31.8983L34.9068 13H32.9296L30.7435 6.26705H30.6753L28.485 13ZM28.3614 9.5696H33.0318V11.0099H28.3614V9.5696ZM38.9945 6.45455V7.81818H35.0528V6.45455H38.9945ZM35.9477 4.88636H37.763V10.9886C37.763 11.1562 37.7886 11.2869 37.8397 11.3807C37.8908 11.4716 37.9619 11.5355 38.0528 11.5724C38.1465 11.6094 38.2545 11.6278 38.3766 11.6278C38.4619 11.6278 38.5471 11.6207 38.6323 11.6065C38.7176 11.5895 38.7829 11.5767 38.8283 11.5682L39.1139 12.919C39.0229 12.9474 38.8951 12.9801 38.7303 13.017C38.5656 13.0568 38.3653 13.081 38.1295 13.0895C37.692 13.1065 37.3085 13.0483 36.9789 12.9148C36.6522 12.7812 36.3979 12.5739 36.2161 12.2926C36.0343 12.0114 35.9448 11.6562 35.9477 11.2273V4.88636ZM42.133 9.21591V13H40.3177V4.27273H42.0819V7.60938H42.1586C42.3063 7.22301 42.545 6.92045 42.8745 6.7017C43.2041 6.48011 43.6174 6.36932 44.1146 6.36932C44.5691 6.36932 44.9654 6.46875 45.3035 6.66761C45.6444 6.86364 45.9086 7.14631 46.0961 7.51562C46.2864 7.8821 46.3802 8.32102 46.3774 8.83239V13H44.562V9.15625C44.5649 8.75284 44.4626 8.43892 44.2552 8.21449C44.0506 7.99006 43.7637 7.87784 43.3944 7.87784C43.1472 7.87784 42.9285 7.9304 42.7381 8.03551C42.5506 8.14062 42.4029 8.29403 42.295 8.49574C42.1899 8.6946 42.1359 8.93466 42.133 9.21591ZM47.806 13V6.45455H49.6213V13H47.806ZM48.7179 5.6108C48.448 5.6108 48.2165 5.52131 48.0233 5.34233C47.833 5.16051 47.7378 4.94318 47.7378 4.69034C47.7378 4.44034 47.833 4.22585 48.0233 4.04688C48.2165 3.86506 48.448 3.77415 48.7179 3.77415C48.9878 3.77415 49.2179 3.86506 49.4082 4.04688C49.6014 4.22585 49.698 4.44034 49.698 4.69034C49.698 4.94318 49.6014 5.16051 49.4082 5.34233C49.2179 5.52131 48.9878 5.6108 48.7179 5.6108Z" fill="white"/>
<path d="M55.0744 13H51.9807V4.27273H55.1C55.9778 4.27273 56.7335 4.44744 57.3671 4.79688C58.0006 5.14347 58.4878 5.64205 58.8287 6.29261C59.1725 6.94318 59.3443 7.72159 59.3443 8.62784C59.3443 9.53693 59.1725 10.3182 58.8287 10.9716C58.4878 11.625 57.9977 12.1264 57.3585 12.4759C56.7222 12.8253 55.9608 13 55.0744 13ZM53.8259 11.419H54.9977C55.5432 11.419 56.002 11.3224 56.3742 11.1293C56.7492 10.9332 57.0304 10.6307 57.2179 10.2216C57.4082 9.80966 57.5034 9.27841 57.5034 8.62784C57.5034 7.98295 57.4082 7.45597 57.2179 7.04688C57.0304 6.63778 56.7506 6.33665 56.3784 6.14347C56.0063 5.95028 55.5475 5.85369 55.002 5.85369H53.8259V11.419ZM63.66 13.1278C62.9867 13.1278 62.4072 12.9915 61.9214 12.7188C61.4384 12.4432 61.0663 12.054 60.8049 11.5511C60.5435 11.0455 60.4129 10.4474 60.4129 9.7571C60.4129 9.08381 60.5435 8.4929 60.8049 7.98438C61.0663 7.47585 61.4342 7.07955 61.9086 6.79545C62.3859 6.51136 62.9455 6.36932 63.5876 6.36932C64.0194 6.36932 64.4214 6.43892 64.7935 6.57812C65.1685 6.71449 65.4953 6.92045 65.7737 7.19602C66.0549 7.47159 66.2737 7.81818 66.4299 8.2358C66.5862 8.65057 66.6643 9.13636 66.6643 9.69318V10.1918H61.1373V9.06676H64.9555C64.9555 8.8054 64.8987 8.57386 64.785 8.37216C64.6714 8.17045 64.5137 8.01278 64.312 7.89915C64.1131 7.78267 63.8816 7.72443 63.6174 7.72443C63.3418 7.72443 63.0975 7.78835 62.8845 7.91619C62.6742 8.04119 62.5095 8.21023 62.3901 8.4233C62.2708 8.63352 62.2097 8.8679 62.2069 9.12642V10.196C62.2069 10.5199 62.2666 10.7997 62.3859 11.0355C62.508 11.2713 62.6799 11.4531 62.9015 11.581C63.1231 11.7088 63.3859 11.7727 63.6899 11.7727C63.8916 11.7727 64.0762 11.7443 64.2438 11.6875C64.4114 11.6307 64.5549 11.5455 64.6742 11.4318C64.7935 11.3182 64.8845 11.179 64.947 11.0142L66.6259 11.125C66.5407 11.5284 66.366 11.8807 66.1018 12.1818C65.8404 12.4801 65.5024 12.7131 65.0876 12.8807C64.6756 13.0455 64.1998 13.1278 63.66 13.1278ZM73.7754 6.45455L71.4871 13H69.4416L67.1533 6.45455H69.0709L70.4303 11.1378H70.4984L71.8536 6.45455H73.7754Z" fill="#e74c3c"/>
<path d="M80.2222 1.5L87.2222 8.5L80.2222 15.5" stroke="#e74c3c" stroke-width="2" stroke-linecap="round" stroke-linejoin="round"/>
</svg>
